<svg xmlns="http://www.w3.org/2000/svg" xmlns:xlink="http://www.w3.org/1999/xlink" version="1.1" width="256" height="256" viewBox="0 0 256 256" xml:space="preserve">

<defs>
</defs>
<g style="stroke: none; stroke-width: 0; stroke-dasharray: none; stroke-linecap: butt; stroke-linejoin: miter; stroke-miterlimit: 10; fill: none; fill-rule: nonzero; opacity: 1;" transform="translate(1.4065934065934016 1.4065934065934016) scale(2.81 2.81)" >
	<path d="M 36.123 47.688 c -0.256 0 -0.512 -0.098 -0.707 -0.293 c -0.391 -0.391 -0.391 -1.023 0 -1.414 l 6.451 -6.451 c 0.391 -0.391 1.023 -0.391 1.414 0 s 0.391 1.023 0 1.414 l -6.451 6.451 C 36.635 47.591 36.379 47.688 36.123 47.688 z" style="stroke: none; stroke-width: 1; stroke-dasharray: none; stroke-linecap: butt; stroke-linejoin: miter; stroke-miterlimit: 10; fill: rgb(0,0,0); fill-rule: nonzero; opacity: 1;" transform=" matrix(1 0 0 1 0 0) " stroke-linecap="round" />
	<path d="M 46.572 44.463 c -0.256 0 -0.512 -0.098 -0.707 -0.293 c -0.391 -0.391 -0.391 -1.023 0 -1.414 l 3.037 -3.037 c 0.391 -0.391 1.023 -0.391 1.414 0 s 0.391 1.023 0 1.414 l -3.037 3.037 C 47.084 44.365 46.828 44.463 46.572 44.463 z" style="stroke: none; stroke-width: 1; stroke-dasharray: none; stroke-linecap: butt; stroke-linejoin: miter; stroke-miterlimit: 10; fill: rgb(0,0,0); fill-rule: nonzero; opacity: 1;" transform=" matrix(1 0 0 1 0 0) " stroke-linecap="round" />
	<path d="M 36.312 54.724 c -0.256 0 -0.512 -0.098 -0.707 -0.293 c -0.391 -0.391 -0.391 -1.023 0 -1.414 l 7.437 -7.438 c 0.391 -0.391 1.023 -0.391 1.414 0 s 0.391 1.023 0 1.414 l -7.437 7.438 C 36.823 54.626 36.567 54.724 36.312 54.724 z" style="stroke: none; stroke-width: 1; stroke-dasharray: none; stroke-linecap: butt; stroke-linejoin: miter; stroke-miterlimit: 10; fill: rgb(0,0,0); fill-rule: nonzero; opacity: 1;" transform=" matrix(1 0 0 1 0 0) " stroke-linecap="round" />
	<path d="M 45 72.044 c -12.428 0 -22.54 -10.111 -22.54 -22.539 c 0 -12.429 10.111 -22.54 22.54 -22.54 c 12.428 0 22.539 10.111 22.539 22.54 C 67.539 61.933 57.428 72.044 45 72.044 z M 45 28.965 c -11.326 0 -20.54 9.214 -20.54 20.54 c 0 11.325 9.214 20.539 20.54 20.539 c 11.325 0 20.539 -9.214 20.539 -20.539 C 65.539 38.179 56.325 28.965 45 28.965 z" style="stroke: none; stroke-width: 1; stroke-dasharray: none; stroke-linecap: butt; stroke-linejoin: miter; stroke-miterlimit: 10; fill: rgb(0,0,0); fill-rule: nonzero; opacity: 1;" transform=" matrix(1 0 0 1 0 0) " stroke-linecap="round" />
	<path d="M 86.018 18.81 H 64.651 v -4.878 c 0 -2.278 -1.854 -4.131 -4.131 -4.131 H 29.479 c -2.278 0 -4.131 1.853 -4.131 4.131 v 4.878 H 3.982 C 1.786 18.81 0 20.596 0 22.792 v 53.425 c 0 2.196 1.786 3.982 3.982 3.982 h 82.036 c 2.196 0 3.982 -1.786 3.982 -3.982 V 22.792 C 90 20.596 88.214 18.81 86.018 18.81 z M 27.348 13.932 c 0 -1.175 0.956 -2.131 2.131 -2.131 h 31.041 c 1.175 0 2.131 0.956 2.131 2.131 v 4.878 H 27.348 V 13.932 z M 88 76.217 c 0 1.093 -0.89 1.982 -1.982 1.982 H 3.982 C 2.889 78.199 2 77.31 2 76.217 V 22.792 c 0 -1.093 0.889 -1.982 1.982 -1.982 h 82.036 c 1.093 0 1.982 0.889 1.982 1.982 V 76.217 z" style="stroke: none; stroke-width: 1; stroke-dasharray: none; stroke-linecap: butt; stroke-linejoin: miter; stroke-miterlimit: 10; fill: rgb(0,0,0); fill-rule: nonzero; opacity: 1;" transform=" matrix(1 0 0 1 0 0) " stroke-linecap="round" />
	<path d="M 78.023 35.504 c -2.598 0 -4.711 -2.113 -4.711 -4.711 s 2.113 -4.711 4.711 -4.711 s 4.711 2.113 4.711 4.711 S 80.621 35.504 78.023 35.504 z M 78.023 28.083 c -1.495 0 -2.711 1.216 -2.711 2.711 s 1.216 2.711 2.711 2.711 s 2.711 -1.216 2.711 -2.711 S 79.519 28.083 78.023 28.083 z" style="stroke: none; stroke-width: 1; stroke-dasharray: none; stroke-linecap: butt; stroke-linejoin: miter; stroke-miterlimit: 10; fill: rgb(0,0,0); fill-rule: nonzero; opacity: 1;" transform=" matrix(1 0 0 1 0 0) " stroke-linecap="round" />
	<path d="M 45 65.505 c -8.822 0 -16 -7.178 -16 -16 c 0 -8.823 7.178 -16 16 -16 s 16 7.178 16 16 C 61 58.327 53.822 65.505 45 65.505 z M 45 35.504 c -7.72 0 -14 6.281 -14 14 s 6.28 14 14 14 s 14 -6.28 14 -14 S 52.72 35.504 45 35.504 z" style="stroke: none; stroke-width: 1; stroke-dasharray: none; stroke-linecap: butt; stroke-linejoin: miter; stroke-miterlimit: 10; fill: rgb(0,0,0); fill-rule: nonzero; opacity: 1;" transform=" matrix(1 0 0 1 0 0) " stroke-linecap="round" />
	<path d="M 14.366 35.504 h -3.915 c -2.598 0 -4.711 -2.113 -4.711 -4.711 s 2.113 -4.711 4.711 -4.711 h 3.915 c 2.598 0 4.711 2.113 4.711 4.711 S 16.963 35.504 14.366 35.504 z M 10.451 28.083 c -1.495 0 -2.711 1.216 -2.711 2.711 s 1.216 2.711 2.711 2.711 h 3.915 c 1.495 0 2.711 -1.216 2.711 -2.711 s -1.216 -2.711 -2.711 -2.711 H 10.451 z" style="stroke: none; stroke-width: 1; stroke-dasharray: none; stroke-linecap: butt; stroke-linejoin: miter; stroke-miterlimit: 10; fill: rgb(0,0,0); fill-rule: nonzero; opacity: 1;" transform=" matrix(1 0 0 1 0 0) " stroke-linecap="round" />
</g>
</svg>